<svg viewBox="0 0 988 909" fill="none" xmlns="http://www.w3.org/2000/svg">
<path d="M123.5 88.5L140 94.5L172 172.5L109.5 303L26 268.5L27.5 264L29.5 259L36.5 253L39 248.5L38 245.5L35.5 239.5L31.5 231.5L25 221.5L12 205.5L8 198L8.5 192.5L13 189L66 148L73 145.5L76 141V135L74.5 131.5V126L76 118.5L78 111.5L76 107L72.5 101.5L83.5 100L92.5 98.5L102.5 94.5L116.5 88.5H123.5Z" fill="white" stroke="#60898C"/>
<path d="M432.566 109.655L434.538 117.938L434.636 118.628L434.538 119.614L434.242 120.699L433.355 122.375L432.664 123.065L431.974 123.459L424.579 124.544L423.988 124.741L423.396 125.037L423.298 126.023L423.396 127.6L424.086 130.854L424.678 132.432L425.171 133.418L425.664 133.812L426.157 134.009H426.748H427.439L428.622 133.516L430.101 132.53L433.65 129.375L434.735 128.784L435.327 128.586L435.918 128.685L436.608 128.882L437.101 129.277L437.397 129.671L437.693 130.263L437.792 130.953L437.89 131.643L437.693 143.968L437.003 149.194L435.918 154.518V154.616L434.735 160.927L433.848 164.082L432.073 167.73L426.453 176.21L425.072 177.688L423.298 179.365L413.635 186.267L401.507 192.971L377.055 197.014L371.533 197.211L367.491 198.296L361.378 201.352L358.913 202.831L358.025 203.423L356.448 205.197L354.87 207.465L353.49 210.029L351.616 214.367L348.461 219.396L347.87 220.677L347.475 221.959L347.278 223.241L347.475 225.509L348.067 228.467L349.94 233.89L351.222 236.552L352.602 238.327L354.772 240.594L356.645 243.059L358.518 246.313L358.617 246.51L364.533 251.44L365.124 252.229L365.322 253.314L365.124 255.187L364.829 256.173L364.533 256.962L364.336 257.455L363.645 259.624L362.561 262.187L362.265 262.68L361.575 263.666L358.617 266.624L352.898 274.808L352.504 275.301L351.814 276.287L350.532 278.456L346.292 288.612L342.545 305.176L341.757 311.585V312.473L341.855 313.459L342.151 314.642L342.447 315.431L342.841 316.022L345.01 318.882L373.407 349.349L310.304 349.447L297.782 347.574L291.175 345.602L288.71 344.517L278.851 337.615L275.991 335.545L251.637 337.32L243.059 337.221L241.975 336.925L240.693 336.334L235.369 332.685L222.748 328.249L216.635 325.685L215.846 325.192L213.677 323.023L212.691 322.333L211.902 321.84L210.62 321.445L209.93 320.952L205.296 315.431L204.409 314.149L203.916 310.895L203.423 309.712L202.437 308.332L201.155 305.669L198.986 298.768L199.775 297.486L200.662 296.697L202.338 296.007L202.831 295.711L203.817 294.922L204.507 294.133L205 293.542L205.592 292.457L205.69 291.767L205.789 290.978V290.288L205.69 289.598L205.296 288.809L204.507 288.02L200.268 285.062L197.31 282.104L195.436 280.921L193.168 280.625L192.478 280.428L191.887 280.132L190.901 279.048L189.718 277.372L182.224 263.765L174.336 252.13L174.139 251.44L174.04 250.651V249.172L173.745 243.355L173.449 242.073L173.153 240.792L172.266 240.003L170.885 238.918L158.462 233.199L157.18 232.312L155.8 231.129L154.419 229.551L153.335 227.382L150.278 223.34L152.151 220.184L157.081 216.142L157.87 215.255L158.56 214.17L159.251 213.381L159.941 212.79L161.321 212.001L161.716 211.606L162.899 210.127L165.857 207.071L166.547 206.085L167.138 205L167.434 204.31L167.631 203.62L167.533 202.634L166.941 201.352L163.096 196.324L158.56 192.084L157.772 190.506L157.476 187.647L157.279 187.055L156.983 186.464L156.687 185.971L156.194 185.576L155.504 185.478L154.419 185.774L151.363 188.14L150.574 188.337H145.743L140.714 189.422L138.841 190.408L137.066 188.337L134.7 187.45L129.77 186.957L128.291 185.478L128.981 185.379L129.77 183.703L130.756 180.942L130.854 179.365L130.657 177.984L130.263 176.702L129.474 175.519L128.784 174.928L126.417 173.942L125.431 172.956L124.642 171.575L121.882 161.617L121.487 158.56L122.079 155.8L126.516 148.701L127.206 140.714L127.107 132.53L129.079 124.741L130.854 120.403L131.347 116.853L131.446 113.205L132.136 109.162L133.911 105.514L136.376 102.261L138.052 98.711L137.559 94.1755L138.939 94.0769L140.32 94.2741L167.631 103.838L176.998 104.43L179.858 105.12L182.816 106.205L185.576 107.881L187.844 110.05L192.38 114.191L193.464 116.557L193.661 120.403L192.38 126.319L192.971 128.488L195.732 130.953L198.591 132.629L199.972 132.235L201.155 130.46L203.423 128.093L206.183 126.91L208.648 127.107L211.113 127.798L213.874 128.192L223.241 125.727L226.593 125.431L250.553 129.868L256.765 129.967L268.005 122.67L278.555 115.867L287.527 111.923L311.98 106.599L335.742 95.7531L339.883 94.5699L356.842 83.724L366.801 79.7801L371.829 79.2871L381.492 80.5689L409.691 89.0484L416.987 93.0909L432.566 109.655Z" fill="white" stroke="#BBD0D1" stroke-width="3" stroke-linecap="round" stroke-linejoin="round"/>
<path d="M432.566 109.655L434.538 117.938L434.636 118.628L434.538 119.614L434.242 120.699L433.355 122.375L432.664 123.065L431.974 123.459L424.579 124.544L423.988 124.741L423.396 125.037L423.298 126.023L423.396 127.6L424.086 130.854L424.678 132.432L425.171 133.418L425.664 133.812L426.157 134.009H426.748H427.439L428.622 133.516L430.101 132.53L433.65 129.375L434.735 128.784L435.327 128.586L435.918 128.685L436.608 128.882L437.101 129.277L437.397 129.671L437.693 130.263L437.792 130.953L437.89 131.643L437.693 143.968L437.003 149.194L435.918 154.518V154.616L434.735 160.927L433.848 164.082L432.073 167.73L426.453 176.21L425.072 177.688L423.298 179.365L413.635 186.267L401.507 192.971L377.055 197.014L371.533 197.211L367.491 198.296L361.378 201.352L358.913 202.831L358.025 203.423L356.448 205.197L354.87 207.465L353.49 210.029L351.616 214.367L348.461 219.396L347.87 220.677L347.475 221.959L347.278 223.241L347.475 225.509L348.067 228.467L349.94 233.89L351.222 236.552L352.602 238.327L354.772 240.594L356.645 243.059L358.518 246.313L358.617 246.51L364.533 251.44L365.124 252.229L365.322 253.314L365.124 255.187L364.829 256.173L364.533 256.962L364.336 257.455L363.645 259.624L362.561 262.187L362.265 262.68L361.575 263.666L358.617 266.624L352.898 274.808L352.504 275.301L351.814 276.287L350.532 278.456L346.292 288.612L342.545 305.176L341.757 311.585V312.473L341.855 313.459L342.151 314.642L342.447 315.431L342.841 316.022L345.01 318.882L373.407 349.349L310.304 349.447L297.782 347.574L291.175 345.602L288.71 344.517L278.851 337.615L275.991 335.545L251.637 337.32L243.059 337.221L241.975 336.925L240.693 336.334L235.369 332.685L222.748 328.249L216.635 325.685L215.846 325.192L213.677 323.023L212.691 322.333L211.902 321.84L210.62 321.445L209.93 320.952L205.296 315.431L204.409 314.149L203.916 310.895L203.423 309.712L202.437 308.332L201.155 305.669L198.986 298.768L199.775 297.486L200.662 296.697L202.338 296.007L202.831 295.711L203.817 294.922L204.507 294.133L205 293.542L205.592 292.457L205.69 291.767L205.789 290.978V290.288L205.69 289.598L205.296 288.809L204.507 288.02L200.268 285.062L197.31 282.104L195.436 280.921L193.168 280.625L192.478 280.428L191.887 280.132L190.901 279.048L189.718 277.372L182.224 263.765L174.336 252.13L174.139 251.44L174.04 250.651V249.172L173.745 243.355L173.449 242.073L173.153 240.792L172.266 240.003L170.885 238.918L158.462 233.199L157.18 232.312L155.8 231.129L154.419 229.551L153.335 227.382L150.278 223.34L152.151 220.184L157.081 216.142L157.87 215.255L158.56 214.17L159.251 213.381L159.941 212.79L161.321 212.001L161.716 211.606L162.899 210.127L165.857 207.071L166.547 206.085L167.138 205L167.434 204.31L167.631 203.62L167.533 202.634L166.941 201.352L163.096 196.324L158.56 192.084L157.772 190.506L157.476 187.647L157.279 187.055L156.983 186.464L156.687 185.971L156.194 185.576L155.504 185.478L154.419 185.774L151.363 188.14L150.574 188.337H145.743L140.714 189.422L138.841 190.408L137.066 188.337L134.7 187.45L129.77 186.957L128.291 185.478L128.981 185.379L129.77 183.703L130.756 180.942L130.854 179.365L130.657 177.984L130.263 176.702L129.474 175.519L128.784 174.928L126.417 173.942L125.431 172.956L124.642 171.575L121.882 161.617L121.487 158.56L122.079 155.8L126.516 148.701L127.206 140.714L127.107 132.53L129.079 124.741L130.854 120.403L131.347 116.853L131.446 113.205L132.136 109.162L133.911 105.514L136.376 102.261L138.052 98.711L137.559 94.1755L138.939 94.0769L140.32 94.2741L167.631 103.838L176.998 104.43L179.858 105.12L182.816 106.205L185.576 107.881L187.844 110.05L192.38 114.191L193.464 116.557L193.661 120.403L192.38 126.319L192.971 128.488L195.732 130.953L198.591 132.629L199.972 132.235L201.155 130.46L203.423 128.093L206.183 126.91L208.648 127.107L211.113 127.798L213.874 128.192L223.241 125.727L226.593 125.431L250.553 129.868L256.765 129.967L268.005 122.67L278.555 115.867L287.527 111.923L311.98 106.599L335.742 95.7531L339.883 94.5699L356.842 83.724L366.801 79.7801L371.829 79.2871L381.492 80.5689L409.691 89.0484L416.987 93.0909L432.566 109.655Z" fill="white" stroke="#BBD0D1" stroke-width="3" stroke-linecap="round" stroke-linejoin="round"/>
<path d="M65.8782 278.95L65.9768 279.64L65.5824 280.823L65.0894 282.006L64.9908 282.696L65.0894 283.387L65.188 283.978L65.8782 284.471L66.8642 284.866L68.9348 285.063H70.118L70.9067 284.866L72.1885 284.373L73.4703 284.077L83.5274 283.584L84.2176 283.781L84.8091 284.175L85.3021 284.866L85.5979 285.556V286.345L85.4007 287.035L84.3161 288.514L80.5694 291.077L78.203 293.148L77.6114 294.725L77.3157 299.36L77.0199 300.543L76.6255 301.332L74.3577 302.909L72.8787 304.388L72.4843 305.374L72.3857 306.163L72.6815 306.656L74.3577 309.121L74.9493 310.205L75.2451 311.389L75.6395 313.361L76.0339 319.079L75.5409 331.207L72.6815 351.222L72.7801 351.913L73.6675 355.364L76.1325 362.463L79.8792 380.802L80.2736 387.802L74.6535 385.042L72.6815 384.845L70.6109 386.028L69.5264 386.619L68.9348 386.816L46.6515 388.591L45.6655 388.295L41.4258 384.549L39.0594 383.07L32.7491 380.901L30.3827 376.168L32.3547 370.055L31.6645 366.998L30.5799 355.166L30.8757 352.603L29.3967 351.124L22.2976 341.461L19.2411 339.982L17.7621 338.799L17.1705 337.024L15.9873 336.038L13.621 336.433L11.3532 337.221L10.5644 337.714L8.98683 336.926L9.18403 334.855L9.97281 332.39L10.0714 330.122L9.18403 329.235L4.0569 326.474L4.2541 325.488L4.54989 323.713L4.94429 322.727H4.0569L1.98633 323.812V322.727L4.94429 321.643L7.90224 319.769L10.17 317.107L10.9588 313.854L10.663 311.882L9.38122 309.318L9.08543 307.149L9.87422 305.768L13.3252 304.585L19.0439 293.542L19.2411 292.556V288.317L18.6495 284.866L17.0719 280.527L15.0999 276.583L13.128 273.921L20.2271 274.414L23.7766 273.527L25.2556 270.865L25.9458 267.315L29.7911 261.498L31.1715 261.991L34.1295 261.399L37.0874 260.315L39.9468 259.822L41.8202 261.991V264.357L41.4258 266.723L41.7216 268.893L43.4963 270.372L45.7641 270.963L50.3982 271.062L54.7366 273.132L63.4132 279.443L65.8782 278.95Z" fill="white" stroke="#BBD0D1" stroke-width="3" stroke-linecap="round" stroke-linejoin="round"/>
<path d="M80.2741 387.802L80.3727 391.253L82.0489 412.649L82.1475 415.41L80.8657 419.65L80.4713 420.636L79.8797 421.326L78.8938 422.016L78.4008 422.509L77.4148 423.692L76.8232 423.988L74.7526 424.185L74.161 424.382L73.175 425.073L72.682 425.27L71.3017 425.566L70.7101 425.664L70.1185 425.96L69.2311 426.65L68.7381 427.045L68.1465 427.143H67.5549L66.1745 426.847L64.6956 426.946L63.118 427.833L64.2026 432.763L71.1045 434.144L73.4708 434.242L79.1896 433.651L80.4713 433.946L81.3587 434.341L82.2461 436.609L82.8377 439.074L83.3307 440.257L83.6265 440.75L84.1195 441.341L87.9648 444.003L88.655 444.989L89.2466 446.173L86.4858 446.961L85.3027 447.454L84.6125 448.046L84.2181 448.44L83.8237 449.722L83.4293 451.3L83.3307 452.089V452.68L83.6265 454.455V455.638V456.033L83.3307 456.526L82.8377 457.216L78.9923 460.568L76.7246 463.526L76.0344 464.118L75.5414 464.512L74.654 464.808L74.3582 464.906L73.8652 465.301L70.5129 470.034L60.3572 488.373L60.0614 489.556L59.8642 493.106L59.4698 495.078L55.8217 494.782L51.8777 495.373L48.5254 495.275L45.2716 494.289L42.7081 492.218L41.6235 491.725L40.3417 491.331L38.4683 491.429L37.7781 488.077L35.116 482.457L34.13 477.626L32.7496 474.963L32.3552 473.386V465.991L31.9608 464.906L29.3973 460.469L28.8057 458.596L28.0169 454.849L23.1855 441.933L24.0729 441.44L24.1715 440.651L25.0589 439.468L25.3547 438.186L25.0589 437.003L24.1715 435.82V434.538L24.9603 433.749V433.651L24.6645 433.355L24.1715 432.073L25.3547 429.51L26.2421 428.228L27.4253 427.045L28.2141 424.284L27.7211 421.622L26.8337 419.255L26.3407 417.185V408.508L27.2281 406.339L34.2286 395.592L37.2851 392.436L36.0034 387.605L32.7496 380.9L39.0599 383.07L41.4263 384.549L45.666 388.295L46.652 388.591L68.9353 386.816L69.5269 386.619L70.6115 386.028L72.682 384.844L74.654 385.042L80.2741 387.802Z" fill="white" stroke="#BBD0D1" stroke-width="3" stroke-linecap="round" stroke-linejoin="round"/>
<path d="M551.87 119.219L555.321 129.671L556.702 132.629L564.195 142.39L566.167 144.165L567.449 144.756L568.928 145.151L570.506 145.249L573.168 144.954L574.449 144.658L576.717 143.672L577.407 143.573L577.999 143.475H578.788L579.478 143.672L593.085 149.292L602.254 154.518L603.93 156.194L604.818 157.673L605.114 158.264L605.212 159.053L605.508 161.42L595.845 204.803L581.45 271.258L579.872 282.499V284.471L580.858 284.865L585.197 287.724L586.38 288.316L585.098 290.781L522.389 383.168L439.862 360.884L396.38 357.434L383.267 359.011L380.999 355.56L379.323 353.687L373.407 349.348L345.011 318.881L342.841 316.022L342.447 315.431L342.151 314.642L341.855 313.459L341.757 312.473V311.585L342.546 305.176L346.292 288.612L350.532 278.456L351.814 276.287L352.504 275.301L352.898 274.808L358.617 266.624L361.575 263.666L362.265 262.68L362.561 262.187L363.646 259.624L364.336 257.455L364.533 256.962L364.829 256.173L365.125 255.187L365.322 253.313L365.125 252.229L364.533 251.44L358.617 246.51L358.519 246.313L356.645 243.059L354.772 240.594L352.603 238.326L351.222 236.552L349.941 233.889L348.067 228.467L347.476 225.509L347.278 223.241L347.476 221.959L347.87 220.677L348.462 219.396L351.617 214.367L353.49 210.029L354.87 207.465L356.448 205.197L358.026 203.423L358.913 202.831L361.378 201.352L367.491 198.295L371.534 197.211L377.055 197.014L401.508 192.971L413.635 186.266L423.298 179.364L425.073 177.688L426.453 176.209L432.073 167.73L433.848 164.082L434.735 160.927L435.918 154.616V154.518L437.003 149.193L437.693 143.968L437.89 131.643L437.792 130.953L437.693 130.262L437.397 129.671L437.102 129.276L436.609 128.882L435.918 128.685L435.327 128.586L434.735 128.783L433.651 129.375L430.101 132.53L428.622 133.516L427.439 134.009H426.749H426.157L425.664 133.812L425.171 133.418L424.678 132.432L424.087 130.854L423.396 127.6L423.298 126.023L423.396 125.037L423.988 124.741L424.58 124.544L431.975 123.459L432.665 123.065L433.355 122.374L434.242 120.698L434.538 119.614L434.637 118.628L434.538 117.938L432.566 109.655L436.904 114.191L445.877 118.924L456.328 120.304L480.386 119.121L483.64 118.135L491.331 117.642L514.009 125.332L521.995 124.938L551.87 119.219Z" fill="white" stroke="#BBD0D1" stroke-width="3" stroke-linecap="round" stroke-linejoin="round"/>
<path d="M552.264 119.023L555.715 129.474L557.096 132.432L564.589 142.193L566.561 143.968L567.843 144.56L569.322 144.954L570.9 145.053L573.562 144.757L574.843 144.461L577.111 143.475L577.801 143.376L578.393 143.278H579.182L579.872 143.475L593.479 149.095L602.648 154.321L604.324 155.997L605.212 157.476L605.508 158.068L605.606 158.856L605.902 161.223L596.239 204.606L581.844 271.062L580.266 282.302V284.274L581.252 284.668L585.591 287.528L586.774 288.119L585.492 290.584L522.783 382.971L440.256 360.688L396.774 357.237L383.661 358.814L381.393 355.363L379.717 353.49L373.801 349.152L345.405 318.685L343.235 315.825L342.841 315.234L342.545 314.445L342.249 313.262L342.151 312.276V311.388L342.94 304.979L346.686 288.415L350.926 278.259L352.208 276.09L352.898 275.104L353.293 274.611L359.011 266.427L361.969 263.469L362.659 262.483L362.955 261.99L364.04 259.427L364.73 257.258L364.927 256.765L365.223 255.976L365.519 254.99L365.716 253.117L365.519 252.032L364.927 251.243L359.011 246.313L358.913 246.116L357.039 242.862L355.166 240.397L352.997 238.13L351.616 236.355L350.335 233.693L348.461 228.27L347.87 225.312L347.672 223.044L347.87 221.762L348.264 220.481L348.856 219.199L352.011 214.17L353.884 209.832L355.264 207.268L356.842 205.001L358.42 203.226L359.307 202.634L361.772 201.155L367.885 198.099L371.928 197.014L377.449 196.817L401.902 192.774L414.029 186.07L423.692 179.168L425.467 177.492L426.847 176.013L432.467 167.533L434.242 163.885L435.129 160.73L436.313 154.419V154.321L437.397 148.997L438.087 143.771L438.284 131.446L438.186 130.756L438.087 130.066L437.791 129.474L437.496 129.08L437.003 128.685L436.313 128.488L435.721 128.389L435.129 128.587L434.045 129.178L430.495 132.333L429.016 133.319L427.833 133.812H427.143H426.551L426.058 133.615L425.565 133.221L425.072 132.235L424.481 130.657L423.79 127.403L423.692 125.826L423.79 124.84L424.382 124.544L424.974 124.347L432.369 123.262L433.059 122.868L433.749 122.178L434.636 120.502L434.932 119.417L435.031 118.431L434.932 117.741L432.96 109.458L437.299 113.994L446.271 118.727L456.722 120.107L480.78 118.924L484.034 117.938L491.725 117.445L514.403 125.136L522.389 124.741L537.327 121.882L552.264 119.023Z" stroke="#BBD0D1" stroke-width="3" stroke-linecap="round" stroke-linejoin="round"/>
<path d="M222.749 328.249L235.37 332.685L240.694 336.334L241.976 336.925L243.061 337.221L251.639 337.32L275.992 335.545L278.852 337.615L288.712 344.517L291.177 345.602L297.783 347.574L310.305 349.447L373.408 349.349L379.324 353.687L381 355.56L383.268 359.011L383.465 362.166L383.071 382.379L382.38 385.337L380.803 389.084L379.324 391.746L375.774 397.169L375.183 398.352L374.492 400.324L374.098 401.803L373.901 403.381V404.86L374.591 410.874L374.098 411.762L373.112 412.649L353.59 421.424L351.125 423.298L347.082 427.044L346.49 427.833L346.392 428.326L346.293 429.706L345.997 430.397L345.899 430.594L345.011 431.777L344.814 432.073L344.124 433.946L343.335 435.228L343.138 435.918V436.313L343.237 437.792V438.58L343.138 439.271L342.744 440.257L342.547 440.454L342.152 441.341L342.054 441.933L341.758 442.623L341.659 442.82L338.898 445.877L338.603 446.074L337.518 446.567L337.025 446.665L336.631 446.567L335.743 445.778L330.025 438.383L328.743 436.313L327.757 435.327L319.376 428.425L318.587 427.833L317.305 426.65L316.812 426.058L316.517 425.368L316.122 423.002L315.925 421.128L315.728 420.142L315.038 417.579L314.742 416.987L313.953 416.199L313.657 415.706L313.361 414.818L313.066 414.227L312.573 413.438L311.882 412.55L311.685 412.353L310.896 411.762L310.305 411.564H307.347L306.558 411.466L305.966 411.269L305.375 410.973L304.685 410.48L303.008 408.409L302.121 407.62L301.037 407.029L300.741 406.93L300.346 406.832H299.755L287.43 409.691L280.627 412.156L278.556 412.649H277.964L276.584 412.55L275.795 412.846L274.809 413.339L270.274 416.593L267.316 418.17L266.33 418.959L265.738 419.551L265.344 420.044L264.851 421.227L264.654 421.819L264.358 424.284V429.016L264.456 429.706L265.147 431.876L265.245 432.566V433.256L265.147 433.946L264.851 434.439L264.358 434.834L263.865 434.932H263.273L262.09 434.735L261.499 434.538L261.104 434.242L260.611 433.552L259.329 431.284L258.836 430.89L258.245 430.594L257.456 430.495L255.78 430.594L254.695 430.397H253.808L251.836 430.692H251.047L250.455 430.791L249.765 431.185L248.483 432.073L247.596 432.467L246.512 432.763L245.23 432.664L244.047 432.27L242.568 431.284L241.976 431.087L241.582 431.185L240.99 431.481L240.3 432.467L240.004 433.157L239.905 433.65V434.341L239.61 434.538L239.215 434.735L236.849 434.143H235.271H234.877L234.482 434.341L233.99 434.735L233.595 435.327L233.398 435.82L233.102 437.299L232.806 437.792L231.722 438.778L231.525 439.073L231.229 439.566L230.637 441.933L230.44 442.524L230.144 443.017L229.355 443.905L228.369 444.595L227.975 444.693H227.383L225.609 444.201L224.327 443.609L223.637 443.116L223.242 442.623L222.651 441.637L222.158 440.059L221.96 439.764L221.369 439.172L220.876 438.876L220.284 438.58L219.693 438.285H219.397H218.608L217.819 438.58L214.27 440.947L213.382 441.736L212.889 442.426L212.692 443.412L212.495 443.708H212.199L210.917 443.116L209.734 442.623L209.044 442.031L208.255 441.637L207.664 441.341H206.579L206.086 441.637L205.593 442.031L204.016 444.102L203.523 444.398L202.832 444.595L200.269 444.792L198.987 445.186L198.001 445.877L190.705 451.793L189.817 452.286L186.761 453.37L183.113 445.186L178.577 436.115L178.479 435.82L177.69 434.834L175.521 432.96L173.647 432.369L172.07 432.171L171.182 432.369L170.196 432.664L168.027 434.143L167.435 434.439L166.745 434.538H165.365L164.478 434.735L163.59 435.129L161.618 437.003L161.027 437.2L156.392 437.496L155.604 437.397H154.42L153.139 437.693L152.547 437.792L152.153 437.693L151.955 437.594L150.575 438.186L138.94 444.003L131.644 443.806L128.292 444.595L126.616 445.679L125.63 445.975H125.038L124.151 445.778L122.77 445.088L122.277 444.693L121.982 444.201V443.017L121.686 442.524L121.193 442.13L120.601 441.933H119.517L119.221 441.736L119.024 441.538V440.848L119.221 440.257L119.714 439.566L120.01 439.073L120.207 438.383V438.087L120.01 437.496L119.517 437.101L119.024 436.707L118.531 436.51L118.038 436.411L117.446 436.51L116.066 436.806L115.474 437.299L114.291 438.876L113.108 440.848L109.459 444.891V446.271L109.558 447.454L109.459 447.947L109.164 448.539L108.375 449.525L108.079 450.116L107.882 450.609V452.187V452.483L107.586 452.877L106.502 454.159L106.206 454.751L105.417 454.948L104.924 455.046L100.388 454.06L99.3038 452.286L98.9095 451.99L98.3179 451.694H97.2333L96.7403 451.793L96.3459 451.891L95.9515 452.384L94.2753 454.751L93.7823 455.145L93.2893 455.342L92.6977 454.948L92.0075 454.258L90.6272 452.187L90.0356 451.497L89.5426 451.102H89.2468L88.6552 450.807L88.5566 450.511L88.6552 450.116L89.6412 448.835L90.2328 448.342V447.75L89.2468 446.172L88.6552 444.989L87.965 444.003L84.1197 441.341L83.6267 440.75L83.3309 440.257L82.8379 439.073L82.2463 436.608L81.3589 434.341L80.4715 433.946L79.1897 433.65L73.471 434.242L71.1046 434.143L64.2027 432.763L63.1182 427.833L64.6957 426.946L66.1747 426.847L67.5551 427.143H68.1467L68.7383 427.044L69.2313 426.65L70.1187 425.96L70.7103 425.664L71.3018 425.565L72.6822 425.27L73.1752 425.072L74.1612 424.382L74.7528 424.185L76.8234 423.988L77.415 423.692L78.4009 422.509L78.8939 422.016L79.8799 421.326L80.4715 420.635L80.8659 419.649L82.1477 415.41L82.0491 412.649L80.3729 391.253L80.2743 387.802L79.8799 380.802L76.1332 362.462L73.6682 355.363L72.7808 351.912L72.6822 351.222L75.5416 331.207L76.0346 319.079L75.6402 313.36L75.2458 311.388L74.95 310.205L74.3584 309.12L72.6822 306.655L72.3864 306.162L72.485 305.374L72.8794 304.388L74.3584 302.909L76.6262 301.331L77.0206 300.542L77.3164 299.359L77.6122 294.725L78.2037 293.147L80.5701 291.077L81.2603 292.359L81.6547 292.753L82.2463 293.246L82.8379 293.64L83.9225 293.936L85.1056 294.133L86.979 293.936L88.7538 293.345L89.2468 293.049L89.8384 292.753L90.43 292.654H91.1202L91.7118 292.852L92.2047 293.345L93.0921 294.429L93.4865 295.218L93.7823 295.908L94.0781 297.19L94.3739 297.683L96.3459 298.373L102.853 298.57L103.839 299.162L104.135 301.528L103.149 309.515L101.079 319.375L100.783 322.628L101.966 334.855L101.769 335.841L101.473 336.531L101.177 337.024L100.98 337.615L104.234 344.912L104.924 348.067L105.91 349.151L109.065 350.039L114.291 347.574L114.882 347.475L115.868 347.771L118.531 349.151L119.024 349.447L119.418 349.94L119.911 351.025L120.305 352.208L120.798 353.194L121.193 353.687L121.686 354.081L122.277 354.377L123.066 354.476L124.545 354.574L127.404 354.377L128.785 354.574L138.743 357.335L146.335 357.631L164.083 352.701H164.773H165.463L166.154 352.898L166.647 353.194L171.084 357.237L171.675 358.223L171.872 358.814L172.464 359.899L172.858 360.293L173.351 360.687L174.929 361.673L175.323 362.166L175.619 362.659L176.014 363.054L176.605 363.35H177.493L178.971 363.054L180.056 362.955L181.042 362.561L182.028 361.969L184.592 357.927L187.747 354.772L188.338 354.081L189.522 351.814L189.916 351.321L190.409 351.123L191.198 351.321L191.691 351.616L191.986 352.109L192.578 353.194L192.775 353.786L192.874 354.476L192.972 355.856V356.546L192.874 357.335L192.677 358.025L191.296 361.082L191.099 361.772V362.462V363.152L191.691 365.716V366.406L191.789 368.674L191.888 369.266L192.184 369.759L192.677 370.153L193.17 370.547L193.761 370.745L194.451 370.942H195.93L199.283 370.547L202.339 370.646L203.128 370.547L203.917 370.153L204.607 369.857L205.002 369.364L206.283 367.294L207.072 366.209L208.058 365.519L208.551 365.322L209.143 365.223H209.833L210.523 365.42L211.115 365.617H211.608L211.805 365.124L211.903 357.532L211.706 356.152L211.509 355.56L211.213 355.067L210.819 354.673L210.326 354.377L209.734 354.18L209.143 354.377L208.65 354.673L207.959 355.56L207.072 357.335L206.678 357.828L206.283 358.321L205.79 358.617L205.199 358.814H204.509L203.818 358.716L203.128 358.518L202.635 358.124L202.241 357.73L202.142 357.138L202.044 356.349L202.142 355.56L202.537 354.377L205.396 348.165L206.185 346.785L206.973 345.898L208.945 344.715L212.002 343.433L212.988 342.743L213.875 341.559L217.524 335.052L219.101 331.207L219.594 330.418L219.989 329.826L222.749 328.249Z" fill="white" stroke="#BBD0D1" stroke-width="3" stroke-linecap="round" stroke-linejoin="round"/>
<path d="M522.389 383.168L537.278 395.394L541.912 401.31L551.279 421.326L551.771 423.002L551.87 424.678L550.884 435.13L550.983 437.003L551.673 438.679L552.264 439.764L576.717 474.569L660.033 594.958L649.483 601.367L616.748 621.185L600.381 631.045L584.013 640.905L567.646 650.765L551.377 660.624L518.642 680.344L502.275 690.105L485.908 699.965L469.54 709.825L453.173 719.586L416.987 742.166L385.337 762.181L325.093 713.769L320.656 711.008L316.91 707.952L315.924 707.459L314.543 706.769L314.05 706.571L311.585 706.177L310.106 705.585L304.486 704.106L302.218 703.12L300.838 702.134L296.697 699.768L286.64 691.88L276.583 678.372L275.794 675.907L275.301 674.823L274.216 671.766L273.921 670.682L272.54 667.231L271.653 665.752L257.356 652.441L255.877 651.258L253.314 649.68L241.482 637.75L239.214 636.271L238.228 635.383L230.537 622.664L229.946 621.678L228.96 619.41V619.115L228.763 618.523L228.565 618.227L227.678 617.636L224.72 616.551L221.861 616.945H220.283L219.593 616.748L218.114 616.255L203.718 607.874L202.634 607.381L200.958 606.099L195.929 601.465L195.239 600.282L194.845 599.691L193.76 598.803L193.267 598.014L192.873 597.028L191.394 594.563L191.196 593.972L190.112 592.296L189.915 592L189.027 590.422L186.858 586.971L185.872 584.999L184.985 583.816L182.323 581.055L180.153 577.802L178.083 575.731L174.829 571.59L174.336 570.9L174.238 570.604L172.463 567.843L171.575 567.153L170.885 567.054L169.702 567.252L165.265 568.632L160.138 571.59L159.744 571.689H158.462L148.01 570.308L145.348 568.829L144.658 568.632L141.108 568.731L138.742 569.125L135.192 571.196L132.136 572.083L131.347 570.308L127.798 566.759L126.812 564.195L126.121 560.843L127.206 558.575L128.685 556.603L128.981 554.237L128.192 552.856L127.206 552.56L126.121 552.659L125.135 552.265L123.558 550.49L120.304 545.954L119.614 544.574L119.219 543.194L119.318 541.715L119.811 540.729L120.304 539.94L120.698 538.658L121.29 535.7L121.389 533.728L120.6 532.151L118.234 530.474L117.149 530.869L116.064 530.179L113.895 527.516L111.43 526.333L109.458 524.657L107.979 522.389L106.993 519.333L104.923 518.643L100.88 518.347L96.5418 518.544L93.2881 519.53H92.4993L92.1049 519.431L90.2315 515.783L92.6965 513.121L96.739 510.952L99.5984 508.684L100.289 505.825L100.091 503.163L100.387 501.092L102.556 499.712L104.824 500.303L106.402 501.585L107.388 500.796L107.979 495.077L104.43 496.261L100.782 496.359L97.232 495.077L94.2741 492.415L90.8231 486.105L88.5553 484.626L85.4988 486.795L85.0058 488.176L84.9072 491.627L84.4142 493.303L83.0338 494.782L81.5548 495.472L72.681 495.965L71.7936 495.669L70.0188 494.387L69.23 493.993L68.3426 494.289L66.5678 495.275L65.9763 495.57L59.4688 495.077L59.8631 493.105L60.0603 489.556L60.3561 488.373L70.5118 470.033L73.8641 465.301L74.3571 464.906L74.6529 464.808L75.5403 464.512L76.0333 464.118L76.7235 463.526L78.9913 460.568L82.8366 457.216L83.3296 456.525L83.6254 456.032V455.638V454.455L83.3296 452.68V452.088L83.4282 451.3L83.8226 449.722L84.217 448.44L84.6114 448.046L85.3016 447.454L86.4848 446.961L89.2455 446.173L90.2315 447.75V448.342L89.6399 448.835L88.6539 450.117L88.5553 450.511L88.6539 450.807L89.2455 451.102H89.5413L90.0343 451.497L90.6259 452.187L92.0063 454.258L92.6965 454.948L93.2881 455.342L93.7811 455.145L94.2741 454.751L95.9502 452.384L96.3446 451.891L96.739 451.793L97.232 451.694H98.3166L98.9082 451.99L99.3026 452.286L100.387 454.06L104.923 455.046L105.416 454.948L106.204 454.751L106.5 454.159L107.585 452.877L107.881 452.483V452.187V450.61L108.078 450.117L108.374 449.525L109.162 448.539L109.458 447.947L109.557 447.454L109.458 446.271V444.891L113.106 440.848L114.29 438.876L115.473 437.299L116.064 436.806L117.445 436.51L118.036 436.411L118.529 436.51L119.022 436.707L119.515 437.101L120.008 437.496L120.205 438.087V438.383L120.008 439.073L119.712 439.566L119.219 440.257L119.022 440.848V441.538L119.219 441.736L119.515 441.933H120.6L121.191 442.13L121.684 442.524L121.98 443.017V444.201L122.276 444.694L122.769 445.088L124.149 445.778L125.037 445.975H125.628L126.614 445.68L128.291 444.595L131.643 443.806L138.939 444.003L150.574 438.186L151.954 437.594L152.151 437.693L152.546 437.792L153.137 437.693L154.419 437.397H155.602L156.391 437.496L161.025 437.2L161.617 437.003L163.589 435.13L164.476 434.735L165.364 434.538H166.744L167.434 434.439L168.026 434.144L170.195 432.665L171.181 432.369L172.068 432.172L173.646 432.369L175.519 432.96L177.688 434.834L178.477 435.82L178.576 436.116L183.111 445.187L186.76 453.37L189.816 452.286L190.703 451.793L198 445.877L198.986 445.187L200.268 444.792L202.831 444.595L203.521 444.398L204.014 444.102L205.592 442.031L206.085 441.637L206.578 441.341H207.662L208.254 441.637L209.043 442.031L209.733 442.623L210.916 443.116L212.198 443.708H212.494L212.691 443.412L212.888 442.426L213.381 441.736L214.269 440.947L217.818 438.58L218.607 438.285H219.396H219.691L220.283 438.58L220.875 438.876L221.368 439.172L221.959 439.764L222.156 440.059L222.649 441.637L223.241 442.623L223.635 443.116L224.326 443.609L225.607 444.201L227.382 444.694H227.974L228.368 444.595L229.354 443.905L230.143 443.017L230.439 442.524L230.636 441.933L231.227 439.566L231.523 439.073L231.72 438.778L232.805 437.792L233.101 437.299L233.397 435.82L233.594 435.327L233.988 434.735L234.481 434.341L234.876 434.144H235.27H236.848L239.214 434.735L239.608 434.538L239.904 434.341V433.651L240.003 433.158L240.299 432.467L240.989 431.481L241.58 431.186L241.975 431.087L242.566 431.284L244.045 432.27L245.228 432.665L246.51 432.763L247.595 432.467L248.482 432.073L249.764 431.186L250.454 430.791L251.046 430.693H251.835L253.807 430.397H254.694L255.779 430.594L257.455 430.495L258.243 430.594L258.835 430.89L259.328 431.284L260.61 433.552L261.103 434.242L261.497 434.538L262.089 434.735L263.272 434.932H263.864L264.357 434.834L264.85 434.439L265.145 433.946L265.244 433.256V432.566L265.145 431.876L264.455 429.707L264.357 429.016V424.284L264.652 421.819L264.85 421.227L265.343 420.044L265.737 419.551L266.329 418.959L267.315 418.171L270.273 416.593L274.808 413.339L275.794 412.846L276.583 412.55L277.963 412.649H278.555L280.625 412.156L287.429 409.691L299.754 406.832H300.345L300.739 406.93L301.035 407.029L302.12 407.621L303.007 408.409L304.683 410.48L305.374 410.973L305.965 411.269L306.557 411.466L307.346 411.564H310.304L310.895 411.762L311.684 412.353L311.881 412.55L312.571 413.438L313.064 414.227L313.36 414.818L313.656 415.706L313.952 416.199L314.741 416.987L315.036 417.579L315.727 420.143L315.924 421.129L316.121 423.002L316.515 425.368L316.811 426.058L317.304 426.65L318.586 427.833L319.375 428.425L327.756 435.327L328.741 436.313L330.023 438.383L335.742 445.778L336.629 446.567L337.024 446.666L337.517 446.567L338.601 446.074L338.897 445.877L341.658 442.82L341.757 442.623L342.052 441.933L342.151 441.341L342.545 440.454L342.743 440.257L343.137 439.271L343.236 438.58V437.792L343.137 436.313V435.918L343.334 435.228L344.123 433.946L344.813 432.073L345.01 431.777L345.898 430.594L345.996 430.397L346.292 429.707L346.391 428.326L346.489 427.833L347.081 427.044L351.123 423.298L353.588 421.424L373.111 412.649L374.097 411.762L374.59 410.874L373.9 404.86V403.381L374.097 401.803L374.491 400.324L375.181 398.352L375.773 397.169L379.323 391.746L380.802 389.084L382.379 385.337L383.069 382.379L383.464 362.167L383.267 359.011L396.38 357.434L439.862 360.885L522.389 383.168Z" fill="white" stroke="#BBD0D1" stroke-width="3" stroke-linecap="round" stroke-linejoin="round"/>
<path d="M222.748 328.249L219.988 329.827L219.593 330.418L219.1 331.207L217.523 335.053L213.875 341.56L212.987 342.743L212.001 343.433L208.945 344.715L206.973 345.898L206.184 346.786L205.395 348.166L202.536 354.378L202.141 355.561L202.043 356.35L202.141 357.139L202.24 357.73L202.634 358.125L203.127 358.519L203.818 358.716L204.508 358.815H205.198L205.789 358.618L206.282 358.322L206.677 357.829L207.071 357.336L207.959 355.561L208.649 354.674L209.142 354.378L209.733 354.181L210.325 354.378L210.818 354.674L211.212 355.068L211.508 355.561L211.705 356.153L211.903 357.533L211.804 365.125L211.607 365.618H211.114L210.522 365.421L209.832 365.224H209.142L208.55 365.322L208.057 365.52L207.071 366.21L206.282 367.294L205.001 369.365L204.606 369.858L203.916 370.154L203.127 370.548L202.339 370.647L199.282 370.548L195.93 370.942H194.451L193.76 370.745L193.169 370.548L192.676 370.154L192.183 369.759L191.887 369.266L191.788 368.675L191.69 366.407V365.717L191.098 363.153V362.463V361.773L191.296 361.083L192.676 358.026L192.873 357.336L192.972 356.547V355.857L192.873 354.477L192.774 353.786L192.577 353.195L191.986 352.11L191.69 351.617L191.197 351.321L190.408 351.124L189.915 351.321L189.521 351.814L188.338 354.082L187.746 354.772L184.591 357.927L182.027 361.97L181.041 362.562L180.055 362.956L178.971 363.055L177.492 363.35H176.604L176.013 363.055L175.618 362.66L175.323 362.167L174.928 361.674L173.351 360.688L172.858 360.294L172.463 359.899L171.872 358.815L171.674 358.223L171.083 357.237L166.646 353.195L166.153 352.899L165.463 352.702H164.772H164.082L146.335 357.632L138.742 357.336L128.784 354.575L127.404 354.378L124.544 354.575L123.065 354.477L122.276 354.378L121.685 354.082L121.192 353.688L120.798 353.195L120.305 352.209L119.91 351.026L119.417 349.941L119.023 349.448L118.53 349.152L115.868 347.772L114.882 347.476L114.29 347.575L109.064 350.04L105.909 349.152L104.923 348.068L104.233 344.912L100.979 337.616L101.176 337.025L101.472 336.532L101.768 335.841L101.965 334.855L100.782 322.629L101.078 319.375L103.148 309.516L104.134 301.529L103.839 299.163L102.853 298.571L96.3451 298.374L94.3731 297.684L94.0773 297.191L93.7815 295.909L93.4857 295.219L93.0913 294.43L92.2039 293.345L91.7109 292.852L91.1193 292.655H90.4292L89.8376 292.754L89.246 293.05L88.753 293.345L86.9782 293.937L85.1048 294.134L83.9216 293.937L82.8371 293.641L82.2455 293.247L81.6539 292.754L81.2595 292.359L80.5693 291.078L84.316 288.514L85.4006 287.035L85.5978 286.345V285.556L85.302 284.866L84.809 284.176L84.2174 283.781L83.5273 283.584L73.4702 284.077L72.1884 284.373L70.9066 284.866L70.1178 285.063H68.9347L66.8641 284.866L65.8781 284.471L65.1879 283.979L65.0893 283.387L64.9907 282.697L65.0893 282.007L65.5823 280.823L65.9767 279.64L65.8781 278.95L66.1739 278.851L67.8501 273.527L68.7375 260.611L71.9912 255.286L76.724 253.61L80.3721 254.596L82.6399 254.005L83.9216 247.596V247.497L86.8796 246.314L92.6969 248.582L95.8521 247.596L95.4577 242.37L95.9507 215.847L96.2465 213.185L97.0353 211.804L98.317 210.621L98.5142 209.044L96.3451 206.48L98.0212 204.804L99.8946 206.973L101.768 208.353L103.839 209.044L107.881 209.537L108.768 209.832H109.557L110.839 209.241L111.529 208.255L111.726 206.874L112.219 205.691L113.896 205.1L116.656 204.705L127.798 206.48H130.657L141.109 204.508L141.996 202.93L141.799 198.888L141.306 196.226L140.32 193.169L138.841 190.408L140.714 189.422L145.743 188.338H150.574L151.363 188.141L154.42 185.774L155.504 185.479L156.194 185.577L156.687 185.972L156.983 186.465L157.279 187.056L157.476 187.648L157.772 190.507L158.561 192.085L163.096 196.324L166.942 201.353L167.533 202.635L167.632 203.621L167.435 204.311L167.139 205.001L166.547 206.086L165.857 207.072L162.899 210.128L161.716 211.607L161.322 212.002L159.941 212.79L159.251 213.382L158.561 214.171L157.871 215.255L157.082 216.143L152.152 220.185L150.278 223.34L153.335 227.383L154.42 229.552L155.8 231.13L157.18 232.313L158.462 233.2L170.886 238.919L172.266 240.004L173.153 240.792L173.449 242.074L173.745 243.356L174.041 249.173V250.652L174.139 251.441L174.337 252.131L182.224 263.766L189.718 277.372L190.901 279.049L191.887 280.133L192.479 280.429L193.169 280.626L195.437 280.922L197.31 282.105L200.268 285.063L204.508 288.021L205.296 288.81L205.691 289.599L205.789 290.289V290.979L205.691 291.768L205.592 292.458L205.001 293.543L204.508 294.134L203.818 294.923L202.832 295.712L202.339 296.008L200.662 296.698L199.775 297.487L198.986 298.768L201.155 305.67L202.437 308.332L203.423 309.713L203.916 310.896L204.409 314.15L205.296 315.431L209.931 320.953L210.621 321.446L211.903 321.84L212.691 322.333L213.677 323.024L215.847 325.193L216.635 325.686L222.748 328.249Z" fill="white" stroke="#BBD0D1" stroke-width="3" stroke-linecap="round" stroke-linejoin="round"/>
<path d="M827.946 328.15L811.283 325.784L782.295 325.094L770.956 322.727L765.632 320.755L756.462 318.685L753.8 317.501L749.067 314.642L638.242 205.987L619.805 187.056L608.762 168.618L605.508 161.42L605.212 159.054L605.113 158.265L604.818 157.673L603.93 156.194L602.254 154.518L593.084 149.292L579.478 143.672L578.788 143.475H577.999L577.407 143.574L576.717 143.672L574.449 144.658L573.167 144.954L570.505 145.25L568.928 145.151L567.449 144.757L566.167 144.165L564.195 142.39L556.701 132.629L555.321 129.671L551.87 119.22L599.69 110.05L631.439 98.0211L646.13 89.2458L651.455 87.3724L657.075 86.2879L662.596 83.7243L673.146 76.6252L692.669 63.413L695.627 61.5396L698.782 60.3564L702.036 59.6662L705.388 59.5676L712.191 57.4971L732.01 46.5526L739.306 43.6933L767.012 39.5521L802.311 46.7498L808.917 49.412L812.072 50.2994L853.286 48.3274L914.91 33.7348L931.573 29.7909L938.081 25.8469L949.222 15.2969L956.617 5.43703L958.786 4.15525L961.449 1.98608L963.125 4.05665L963.322 6.22582L963.026 8.0006L963.223 8.78939L965.195 9.18378L969.731 11.3529L970.618 10.9586L971.506 9.87397L972.492 9.08518L973.379 9.38098L974.069 10.367L974.759 12.2403L975.45 13.2263L980.478 17.2689L981.464 17.8605L982.45 20.2268L979.788 30.5797L981.464 32.946L982.647 34.0306L982.943 36.6928L983.042 41.9185L984.028 44.0877L985.112 46.0596L986 48.1302V50.7924L981.366 54.3419L971.9 63.413L956.617 79.879L927.038 111.628L907.121 132.925L903.177 136.277L899.134 138.249L853.286 148.011L843.722 149.687L839.285 151.659L836.327 155.8L823.312 181.435L822.129 186.365L817.298 232.312V235.369L817.889 238.623L821.734 247.497L833.172 272.442L834.749 278.358L835.44 284.372L836.13 309.416L835.242 315.135L832.975 320.558L827.946 328.15Z" fill="white" stroke="#BBD0D1" stroke-width="3" stroke-linecap="round" stroke-linejoin="round"/>
<path d="M827.946 328.15L820.946 338.7L819.565 344.222L818.284 361.871L812.072 384.253L810.691 395.296L811.579 429.313L812.861 460.864L812.565 465.597L811.283 470.034L785.845 519.333V519.432L780.52 531.165L777.168 535.996L772.83 538.757L736.545 548.617L714.854 561.73L698.486 571.689L682.119 581.549L660.033 594.958L576.717 474.569L552.265 439.764L551.673 438.679L550.983 437.003L550.884 435.13L551.87 424.678L551.772 423.002L551.279 421.326L541.912 401.311L537.278 395.395L522.389 383.168L585.098 290.782L586.38 288.317L585.196 287.725L580.858 284.866L579.872 284.471V282.499L581.45 271.259L595.845 204.804L605.508 161.42L608.762 168.618L619.805 187.056L638.242 205.987L749.067 314.642L753.8 317.502L756.462 318.685L765.632 320.755L770.956 322.727L782.295 325.094L811.283 325.784L827.946 328.15Z" fill="white" stroke="#BBD0D1" stroke-width="3" stroke-linecap="round" stroke-linejoin="round"/>
<path d="M263.962 839.975L252.229 847.469L226.889 863.836L210.522 874.288L187.844 889.176L164.082 905.445L162.209 906.135L160.138 906.036L150.673 903.571L147.419 903.473L144.855 904.952L139.531 900.909L119.318 898.444L119.22 897.36L119.811 892.331L119.91 891.937L119.516 883.457L119.614 882.668L120.6 879.218L120.797 878.527L120.896 877.048L120.699 876.457L120.304 875.668L118.825 873.302L116.853 871.034L116.065 869.949V869.456L116.163 868.865L116.952 867.09L117.938 865.808L118.037 865.512L117.839 864.428L116.065 861.766L113.698 862.061H113.304L112.515 861.667L111.923 861.174L111.628 860.681L110.937 860.089L110.247 859.892H109.951L107.092 860.385L104.824 860.287L102.359 859.892L102.162 859.596L102.064 859.103L102.261 857.92L102.359 857.329L102.852 856.047L102.951 855.357L102.852 854.864L101.965 852.892L101.866 852.004L102.064 851.117L102.655 850.525L104.529 849.934L105.12 849.737L105.515 849.342L106.501 848.258L106.994 847.962L108.078 847.37L108.867 846.68L109.163 846.088L109.557 844.807V844.018L109.163 843.426L108.473 842.736L106.599 841.454L105.613 840.863L104.923 840.567L101.965 840.37L101.275 840.172L99.0071 839.186L98.3169 839.088H97.6267L96.9365 838.891L96.5421 838.693L96.0491 838.2L95.5561 836.919L95.4575 836.524L95.2603 835.44V834.651L95.3589 833.566L95.7533 832.679L97.3309 831.2L96.1477 819.368V816.607L96.5421 816.016L96.6407 815.424L96.1477 813.649L93.4855 807.241L93.0911 805.466L92.6967 804.184L92.5981 803.099L92.6967 802.409L92.8939 801.818L94.0771 799.353L94.2743 798.761L94.1757 798.071L93.9785 797.381L93.5841 796.592L93.3869 796V795.31L93.6827 794.719L94.1757 794.226L96.5421 792.451L98.3169 791.366L100.387 789.394L104.923 785.943L106.008 785.352L107.585 784.957L113.6 784.563L122.276 785.154L122.967 785.056L123.262 784.957L123.459 784.661L123.558 784.267L123.262 783.281L122.572 781.901L122.276 781.309L122.178 780.619L121.882 776.478L121.783 775.886L121.488 775.295L120.995 774.999L120.304 774.9H119.614L119.318 774.999L116.952 775.886L116.262 775.788L115.769 775.492L115.177 774.9L114.98 774.21L114.881 771.548V770.759L114.783 770.069L114.586 769.477L113.501 767.308L113.107 766.125L112.811 764.843V763.857L113.008 762.871L113.107 761.787L113.008 760.702L112.614 759.42L112.515 758.533L112.712 757.744L113.008 756.857L113.501 756.068L114.191 755.181L114.98 754.392L117.544 752.42L118.135 752.321H119.121L123.262 752.814L124.445 752.518L127.305 751.138L164.772 745.616L164.97 745.814L166.35 747.293L167.04 747.786L168.223 749.067L169.505 750.053L173.843 752.42L174.238 752.814L175.914 754.688L176.506 755.772L176.703 756.364L176.999 758.533L177.196 759.026L177.59 759.519L182.816 764.843L183.309 765.632L183.506 766.224L183.9 767.702L183.999 769.28L184.098 769.97L184.295 770.66L184.591 771.153L184.985 771.548L188.042 773.816L188.535 774.111L191 774.506H191.887L201.55 776.576L202.24 777.069L202.93 777.562L203.719 778.154L205.395 779.239L206.085 779.732L206.381 780.225L206.479 780.816V781.605L206.381 782.295L206.479 783.281L206.578 783.675L206.775 784.168L207.367 785.154L208.254 785.943L208.451 786.14L208.747 786.929L209.142 787.619L209.536 788.014L209.832 788.31L210.128 788.704L210.423 789.789L217.917 794.226L219.79 795.113L220.678 794.817L221.171 794.521L221.565 794.028L222.255 793.93L226.495 794.028L228.861 794.817L229.847 795.902L230.439 796.888L230.735 797.479L230.932 798.071L231.425 799.846L232.115 807.832L232.312 808.818L232.805 809.607L252.821 829.918L260.117 835.243L261.399 836.623L263.962 839.975Z" fill="white" stroke="#BBD0D1" stroke-width="3" stroke-linecap="round" stroke-linejoin="round"/>
<path d="M385.336 762.181L372.814 770.168L347.08 786.338L328.248 798.564L302.908 814.931L277.568 831.2L263.961 839.975L261.398 836.623L260.116 835.243L252.82 829.918L232.804 809.607L232.311 808.818L232.114 807.832L231.424 799.846L230.931 798.071L230.734 797.479L230.438 796.888L229.846 795.902L228.86 794.817L226.494 794.028L222.254 793.93L221.564 794.028L221.17 794.521L220.677 794.817L219.789 795.113L217.916 794.226L210.422 789.789L210.127 788.704L209.831 788.31L209.535 788.014L209.141 787.619L208.746 786.929L208.45 786.141L208.253 785.943L207.366 785.155L206.774 784.169L206.577 783.676L206.478 783.281L206.38 782.295L206.478 781.605V780.816L206.38 780.225L206.084 779.732L205.394 779.239L203.718 778.154L202.929 777.562L202.239 777.069L201.549 776.576L191.886 774.506H190.998L188.534 774.111L188.041 773.816L184.984 771.548L184.59 771.154L184.294 770.661L184.097 769.97L183.998 769.28L183.899 767.703L183.505 766.224L183.308 765.632L182.815 764.843L177.589 759.519L177.195 759.026L176.997 758.533L176.702 756.364L176.504 755.772L175.913 754.688L174.237 752.814L173.842 752.42L169.504 750.053L168.222 749.067L167.039 747.786L166.349 747.293L164.968 745.814L164.771 745.617L127.304 751.138L127.008 749.265L126.909 746.405L126.614 745.419L126.121 744.532L121.191 738.715L120.796 738.222L120.599 737.63L119.909 735.461L119.416 734.376L118.923 733.686L118.43 733.292H117.838H117.345L114.88 735.066L113.993 736.052L113.599 736.545L106.302 741.18L105.612 741.574L101.175 745.617L100.682 746.405L100.485 746.997L100.386 748.87L100.189 749.56L99.8934 749.955L99.3018 750.349H98.513L97.3298 750.152L93.5831 748.969L92.8929 748.673L92.4985 748.18L92.1041 747.786L90.6251 746.898L90.3293 746.405L89.6391 745.025L89.3433 744.532L88.8503 744.138L88.6531 744.039L87.9629 743.842L85.3008 743.447L84.6106 743.152L84.1176 742.856L83.8218 742.264L83.7232 741.968L83.526 740.194L83.3288 739.602L82.7372 739.01L81.1596 738.123L80.4694 737.531L79.7793 736.644L78.5961 734.672L78.2017 734.179L77.6101 733.982L77.2157 734.179L76.7227 734.869L76.0325 736.447L75.8353 737.236L75.7367 737.827L76.3283 739.799V740.489V741.18L76.0325 741.87L75.8353 742.461L74.9479 743.94L74.4549 745.419L73.0746 746.109L66.8628 748.18L64.5951 749.363L64.0035 749.56L52.2703 750.546L52.0731 750.645L49.8053 752.617L48.9179 753.307L48.4249 753.504L47.4389 753.899L46.6501 753.997L43.7908 753.899L42.8048 753.702L42.3118 753.011L41.4244 751.335L40.8328 750.744L40.4384 750.546L37.1847 749.166L37.4805 747.983V747.194V744.532L37.5791 743.053V742.264L37.4805 741.574L37.0861 741.278L36.4945 740.884L34.6211 740.588L32.9449 740.489L29.494 739.898L28.8038 739.996L28.2122 740.292L27.8178 740.687L27.6206 741.18L27.2262 742.461L26.9304 742.954L26.6346 742.856L26.2402 742.461L25.3528 740.292L25.057 739.405V738.616V737.926L25.2542 736.841L25.55 735.855L25.9444 735.066L26.536 734.08L27.2262 733.193L27.4234 732.601L25.8458 731.517L19.6341 728.263L18.4509 725.404L17.7607 723.235V720.868L18.4509 718.502L19.9299 716.53L22.3949 714.755L23.6767 713.375L24.1697 711.699L23.6767 709.036L26.4374 707.459L30.973 703.515L33.3393 697.895L31.3673 694.247L33.0435 691.979L36.4945 690.796L39.9454 690.894L42.8048 689.514L45.8613 687.542L48.1291 684.88L48.6221 681.527L47.2417 679.555L44.7768 677.682L42.1146 676.302L39.9454 675.71L36.4945 673.837L33.2407 673.147L31.2688 671.963L31.8603 668.118L32.4519 667.526L34.4239 666.836L35.1141 666.146L35.5085 664.371L35.0155 661.216L35.3113 659.737L36.3959 658.061L39.058 655.596L39.9454 653.624L42.016 650.567L46.8473 646.328L48.9179 642.581L50.3969 640.609L52.7632 639.623L55.4254 638.933L58.0876 637.75L63.3133 634.496L64.2993 635.087L66.1727 637.454L67.3558 638.243L70.511 638.144L72.8774 636.665L74.9479 634.989L77.2157 634.2L79.7793 634.693L87.3714 638.44L92.8929 639.722L95.7522 639.327L97.527 636.961L97.2312 633.313L94.6676 631.735L88.8503 630.749L84.512 627.298L83.6246 626.214L82.6386 624.537L82.4414 623.847L85.5966 617.438L87.5686 614.185L89.9349 611.325L95.8508 606.198L100.682 599.888L103.837 598.31L105.513 598.409L108.767 599.592L110.739 599.493L113.204 598.31L113.993 596.634L114.289 594.563L115.078 592L118.036 588.352L124.642 582.633L128.093 576.914L132.234 572.28L132.135 572.083L135.192 571.196L138.741 569.125L141.108 568.731L144.657 568.632L145.347 568.829L148.009 570.308L158.461 571.689H159.743L160.137 571.59L165.264 568.632L169.701 567.252L170.884 567.054L171.575 567.153L172.462 567.843L174.237 570.604L174.335 570.9L174.828 571.59L178.082 575.731L180.153 577.802L182.322 581.055L184.984 583.816L185.871 584.999L186.857 586.971L189.027 590.422L189.914 592L190.111 592.296L191.196 593.972L191.393 594.563L192.872 597.028L193.266 598.014L193.759 598.803L194.844 599.691L195.238 600.282L195.928 601.465L200.957 606.1L202.633 607.381L203.718 607.874L218.113 616.255L219.592 616.748L220.282 616.945H221.86L224.719 616.551L227.677 617.636L228.565 618.227L228.762 618.523L228.959 619.115V619.41L229.945 621.678L230.537 622.664L238.227 635.383L239.213 636.271L241.481 637.75L253.313 649.68L255.876 651.258L257.355 652.441L271.652 665.752L272.54 667.231L273.92 670.682L274.216 671.766L275.3 674.823L275.793 675.907L276.582 678.372L286.639 691.88L296.696 699.768L300.837 702.135L302.218 703.12L304.485 704.106L310.106 705.585L311.585 706.177L314.05 706.571L314.543 706.769L315.923 707.459L316.909 707.952L320.656 711.008L325.093 713.769L385.336 762.181ZM94.6676 690.993L94.7663 689.12L92.3999 685.866L88.3573 685.471L80.0751 687.936L75.6381 688.134L70.018 691.289L71.1026 694.542L73.469 694.247L76.9199 695.923L73.7648 699.275L74.5535 701.05L77.9059 698.782L86.8784 703.318L89.7377 703.811L90.2307 701.642L93.5831 698.191L94.9634 694.345L94.6676 690.993Z" fill="white" stroke="#BBD0D1" stroke-width="3" stroke-linecap="round" stroke-linejoin="round"/>
<path d="M37.1856 749.166L36.101 755.969L35.9038 757.744L36.101 758.04L38.1716 759.617L38.566 759.913L38.9604 760.505L39.6505 761.885L39.8477 762.575L39.9463 763.068L38.073 766.125L37.087 768.393L36.9884 768.59L35.115 779.731V781.013L35.8052 782.689L37.4814 785.253L38.3688 787.028L38.9604 788.014L39.5519 788.605L39.8477 789.295L40.8337 792.352L41.0309 793.437V794.028L40.7351 794.521L40.1435 794.423L39.6505 794.127L39.4533 793.93L39.059 793.437L38.9604 793.239L38.7632 792.253L38.3688 791.859L38.073 791.76L37.2842 791.662L34.7206 791.76L34.2276 791.859L33.7346 792.155L33.143 792.648L32.9458 793.141V793.535L33.143 794.028L33.5374 794.521L33.7346 795.211L34.0304 796.197L34.4248 799.648V800.437L34.3262 800.733L33.5374 801.818L29.1005 805.466L21.3112 812.663L20.2266 814.34V814.241L22.2972 806.452L26.6355 797.972L29.8893 794.62L31.6641 791.07L27.8187 787.915L24.7622 786.633L22.8888 770.956L23.4804 766.421L26.6355 766.026H28.5089V764.744H27.7201L27.1285 764.054L26.9313 763.364L27.3257 762.674L29.0019 761.885L29.6921 761.491L29.7907 760.8V756.068L29.1991 755.082L29.0019 754.096L28.1145 753.603L27.6215 753.504L26.6355 754.096H26.3397L25.8467 753.701L25.5509 752.715V751.927L26.4383 750.941V750.25L25.9453 749.264L24.3678 747.194L23.086 745.419L22.3958 743.349L21.3112 737.827L21.2126 737.137L20.9168 736.644L20.128 736.052H18.649L17.1701 735.954L16.2827 735.756L16.1841 735.066L16.4799 734.77L17.1701 734.376L18.2547 733.982L19.3392 733.193L19.9308 731.615L20.128 729.939L19.7336 728.46L19.635 728.263L25.8467 731.517L27.4243 732.601L27.2271 733.193L26.5369 734.08L25.9453 735.066L25.5509 735.855L25.2552 736.841L25.058 737.926V738.616V739.405L25.3538 740.292L26.2411 742.461L26.6355 742.856L26.9313 742.954L27.2271 742.461L27.6215 741.179L27.8187 740.686L28.2131 740.292L28.8047 739.996L29.4949 739.898L32.9458 740.489L34.622 740.588L36.4954 740.884L37.087 741.278L37.4814 741.574L37.58 742.264V743.053L37.4814 744.532V747.194V747.983L37.1856 749.166Z" fill="white" stroke="#BBD0D1" stroke-width="3" stroke-linecap="round" stroke-linejoin="round"/>
<path d="M127.305 751.138L124.446 752.518L123.263 752.814L119.121 752.321H118.135L117.544 752.42L114.98 754.392L114.191 755.18L113.501 756.068L113.008 756.857L112.712 757.744L112.515 758.533L112.614 759.42L113.008 760.702L113.107 761.786L113.008 762.871L112.811 763.857V764.843L113.107 766.125L113.501 767.308L114.586 769.477L114.783 770.069L114.882 770.759V771.548L114.98 774.21L115.177 774.9L115.769 775.492L116.262 775.787L116.952 775.886L119.319 774.999L119.614 774.9H120.305L120.995 774.999L121.488 775.294L121.784 775.886L121.882 776.478L122.178 780.619L122.277 781.309L122.572 781.901L123.263 783.281L123.558 784.267L123.46 784.661L123.263 784.957L122.967 785.056L122.277 785.154L113.6 784.563L107.585 784.957L106.008 785.352L104.923 785.943L100.388 789.394L98.3171 791.366L96.5423 792.451L94.1759 794.225L93.6829 794.718L93.3871 795.31V796L93.5843 796.592L93.9787 797.381L94.1759 798.071L94.2745 798.761L94.0773 799.353L92.8941 801.818L92.697 802.409L92.5984 803.099L92.697 804.184L93.0913 805.466L93.4857 807.24L96.1479 813.649L96.6409 815.424L96.5423 816.016L96.1479 816.607V819.368L97.3311 831.2L95.7535 832.679L95.3591 833.566L95.2605 834.651V835.44L95.4577 836.524L95.5563 836.919L96.0493 838.2L96.5423 838.693L96.9367 838.891L97.6269 839.088H98.3171L99.0073 839.186L101.275 840.172L101.965 840.37L104.923 840.567L105.613 840.863L106.599 841.454L108.473 842.736L109.163 843.426L109.557 844.018V844.806L109.163 846.088L108.867 846.68L108.078 847.37L106.994 847.962L106.501 848.257L105.515 849.342L105.12 849.736L104.529 849.934L102.655 850.525L102.064 851.117L101.867 852.004L101.965 852.892L102.853 854.864L102.951 855.357L102.853 856.047L102.36 857.328L102.261 857.92L102.064 859.103L102.162 859.596L102.36 859.892L104.825 860.286L107.092 860.385L109.952 859.892H110.248L110.938 860.089L111.628 860.681L111.924 861.174L112.515 861.667L113.304 862.061H113.698L116.065 861.765L117.84 864.428L118.037 865.512L117.938 865.808L116.952 867.09L116.163 868.865L116.065 869.456V869.949L116.854 871.034L118.826 873.301L120.305 875.668L120.699 876.457L120.896 877.048L120.798 878.527L120.6 879.217L119.614 882.668L119.516 883.457L119.91 891.937L119.812 892.331L119.22 897.359L119.319 898.444L113.896 897.754L111.529 896.275L103.148 895.388L100.289 894.5L98.0213 893.317L85.1049 880.894L75.5408 874.287L70.7095 869.456L69.1319 868.569L68.3431 868.766L66.6669 870.344L65.9767 870.738L65.0893 870.541L63.5118 869.949L62.6244 869.851L57.1029 870.541L53.2575 870.442L52.6659 870.344V869.555L51.8771 867.484L45.1724 857.328L43.7921 854.371L43.6935 851.117L44.0878 848.159L43.3977 846.088L39.9467 845.891L37.8761 846.285L36.2986 845.694L35.0168 844.511L33.6364 842.834H34.228L34.6224 842.144L34.8196 841.06L34.6224 839.877L34.0308 839.581H32.1574L31.4672 839.285L28.9037 836.721L27.4247 835.933L11.5503 832.186L10.1699 830.411L9.57834 829.918L8.78955 829.721L12.0433 825.185L14.4097 823.706L15.5929 823.016L16.4802 821.34L19.6354 816.805L20.4242 815.326L20.227 814.34L21.3116 812.663L29.1009 805.466L33.5378 801.818L34.3266 800.733L34.4252 800.437V799.648L34.0308 796.197L33.735 795.211L33.5378 794.521L33.1434 794.028L32.9462 793.535V793.141L33.1434 792.648L33.735 792.155L34.228 791.859L34.721 791.76L37.2845 791.662L38.0733 791.76L38.3691 791.859L38.7635 792.253L38.9607 793.239L39.0593 793.437L39.4537 793.93L39.6509 794.127L40.1439 794.423L40.7355 794.521L41.0313 794.028V793.437L40.8341 792.352L39.8481 789.295L39.5523 788.605L38.9607 788.014L38.3691 787.028L37.4817 785.253L35.8056 782.689L35.1154 781.013V779.731L36.9887 768.59L37.0873 768.393L38.0733 766.125L39.9467 763.068L39.8481 762.575L39.6509 761.885L38.9607 760.505L38.5663 759.913L38.1719 759.617L36.1014 758.04L35.9042 757.744L36.1014 755.969L37.1859 749.166L40.4397 750.546L40.8341 750.743L41.4257 751.335L42.3131 753.011L42.8061 753.701L43.7921 753.899L46.6514 753.997L47.4402 753.899L48.4262 753.504L48.9192 753.307L49.8066 752.617L52.0743 750.645L52.2715 750.546L64.0048 749.56L64.5964 749.363L66.8641 748.18L73.0758 746.109L74.4562 745.419L74.9492 743.94L75.8366 742.461L76.0338 741.87L76.3296 741.179V740.489V739.799L75.738 737.827L75.8366 737.235L76.0338 736.447L76.724 734.869L77.217 734.179L77.6114 733.982L78.203 734.179L78.5974 734.672L79.7805 736.644L80.4707 737.531L81.1609 738.123L82.7385 739.01L83.3301 739.602L83.5273 740.193L83.7245 741.968L83.8231 742.264L84.1189 742.856L84.6119 743.151L85.3021 743.447L87.9642 743.842L88.6544 744.039L88.8516 744.137L89.3446 744.532L89.6404 745.025L90.3306 746.405L90.6264 746.898L92.1054 747.786L92.4998 748.18L92.8941 748.673L93.5843 748.969L97.3311 750.152L98.5143 750.349H99.3031L99.8947 749.955L100.19 749.56L100.388 748.87L100.486 746.997L100.683 746.405L101.176 745.616L105.613 741.574L106.304 741.179L113.6 736.545L113.994 736.052L114.882 735.066L117.347 733.292H117.84H118.431L118.924 733.686L119.417 734.376L119.91 735.461L120.6 737.63L120.798 738.221L121.192 738.714L126.122 744.532L126.615 745.419L126.911 746.405L127.009 749.264L127.305 751.138Z" fill="white" stroke="#BBD0D1" stroke-width="3" stroke-linecap="round" stroke-linejoin="round"/>
<path d="M94.6682 690.993L94.964 694.345L93.5836 698.191L90.2313 701.642L89.7383 703.811L86.8789 703.318L77.9064 698.782L74.5541 701.05L73.7653 699.275L76.9205 695.923L73.4695 694.247L71.1031 694.543L70.0186 691.289L75.6387 688.134L80.0756 687.936L88.3579 685.471L92.4004 685.866L94.7668 689.12L94.6682 690.993Z" fill="white" stroke="#BBD0D1" stroke-width="3" stroke-linecap="round" stroke-linejoin="round"/>
<path d="M19.6348 728.263L19.7334 728.46L20.1278 729.939L19.9306 731.615L19.339 733.193L18.2544 733.982L17.1698 734.376L16.4796 734.771L16.1838 735.066L16.2824 735.757L17.1698 735.954L18.6488 736.052H20.1278L20.9166 736.644L21.2124 737.137L21.311 737.827L22.3955 743.349L23.0857 745.419L24.3675 747.194L25.9451 749.265L26.4381 750.251V750.941L25.5507 751.927V752.716L25.8465 753.702L26.3395 754.096H26.6353L27.6213 753.504L28.1143 753.603L29.0016 754.096L29.1988 755.082L29.7904 756.068V760.801L29.6918 761.491L29.0016 761.885L27.3255 762.674L26.9311 763.364L27.1283 764.054L27.7199 764.745H28.5086V766.026H26.6353L23.4801 766.421L22.8885 770.956L24.7619 786.633L27.8185 787.915L31.6638 791.07L29.889 794.62L26.6353 797.972L22.2969 806.452L20.2264 814.241V814.34L20.4236 815.326L19.6348 816.805L16.4796 821.34L15.5922 823.016L14.4091 823.707L12.0427 825.186L8.78893 829.721L8.00015 829.918L7.01416 830.411L10.9581 824.495L18.353 815.72L19.5362 811.185L18.9446 809.015L20.6208 803.691L23.1843 799.353L24.2689 799.057L26.3395 795.113L22.8885 789.296L22.0011 787.126L20.1278 770.266L20.5222 767.9L15.0006 765.632V762.97L16.6768 760.406L18.2544 756.857L17.7614 751.828L14.4091 749.758L13.8175 741.475L9.67632 738.517L8.69034 737.137L13.6203 730.136L8.00015 726.193L11.2539 724.714L12.3385 723.53L14.8034 721.657L15.0992 719.291L15.5922 718.403L15.7894 715.445L16.6768 714.361L16.4796 713.375L23.6773 709.036L24.1703 711.699L23.6773 713.375L22.3955 714.755L19.9306 716.53L18.4516 718.502L17.7614 720.868V723.235L18.4516 725.404L19.6348 728.263Z" fill="white" stroke="#BBD0D1" stroke-width="3" stroke-linecap="round" stroke-linejoin="round"/>
<path d="M137.5 94.5L138.5 93.5M138.5 93.5L166 103.5L170 104L176 104.5L180 105.5L184.5 107L191 113L193.5 115.5V119L193 123L192.5 126.5L193.5 129.5L198 132.5H199.5L205 127.5H207.5L212.5 128L216.5 127.5L225.5 125.5L253 130H256.5L278.5 116L287.5 112.5L311 107L337.5 95L340 94.5L357 84L366.5 80L371 79.5L376.5 80L381 80.5L408.5 88.5L416 92.5L431 108.5L437.5 114.5L445.5 118.5L456 120.5L480 119.5L482 118.5L491.5 118L510 123.5L513 125L551.5 119.5L598.5 110.5L630 98.5L646.5 89.5L653 87.5L657.5 86L696.5 61.5L705.5 59.5L709.5 58.5L734 46L738 44.5L766.5 39.5L802 47L812 50.5L853 48.5L931.5 30L934.5 28.5L956.5 5.5L961 2.5L963.5 4.5L963 8L965.5 9.5L969 11H970.5L972.5 9L974.5 12L981.5 18L982.5 20L980 30L982.5 33.5L983 42.5L986 48V51L906 134L900.5 138L842 150.5L839 151.5L824 180L817.5 231.5V236.5L833 272L834.5 277L836 309L835.5 315.5L822 337.5L820.5 340L818.5 361.5L812 383.5L811 395.5L812.5 461.5L812 469L780 532.5L777 536L775 537.5L738.5 548L635 610.5L378.5 766L230 862L164 905.5L159.5 906.5L148 903L145 904.5L139 900.5L114 898L111 896.5L100.5 894.5L86.9999 883L69.4999 868.5L67.4999 870.5H57.9999H52.9999L43.9999 856V847.5L37.4999 845.5L33.4999 843L34.9999 840L31.4999 839L27.9999 836L12.9999 832.5L9.99988 830.5L8.49988 829L20.4999 811.5L21.9999 805.5L26.4999 796.5L23.4999 791L20.4999 778L19.9999 768.5L15.4999 766L14.4999 762.5L17.9999 757.5V752.5L15.4999 750.5L13.9999 747L13.4999 741.5L8.99988 738L13.4999 730.5L8.49988 726L14.4999 722L15.4999 719V717.5L15.9999 715L16.9999 713L30.4999 704L32.9999 699L32.4999 696.5L31.9999 693.5L34.9999 691.5L39.9999 691L46.9999 686.5C47.3332 685.833 47.9999 684.4 47.9999 684C47.9999 683.5 47.9999 681.5 47.9999 681C47.9999 680.5 47.4999 680 46.4999 679C45.6999 678.2 44.1665 677.333 43.4999 677C42.4999 676.833 40.3999 676.4 39.9999 676C39.5999 675.6 37.4999 674.5 36.4999 674L31.9999 672.5V669L33.4999 667L34.9999 665.5C35.1665 664.833 35.4999 663.4 35.4999 663C35.4999 662.6 35.4999 660.5 35.4999 659.5L37.9999 657L40.9999 652.5L44.4999 648.5L47.4999 647L48.9999 643.5L50.9999 641L54.9999 639L57.9999 637.5L60.4999 636.5L63.4999 635L65.4999 636.5L69.4999 638.5L72.4999 637.5L73.9999 635.5L76.9999 635C77.6665 634.833 79.1999 634.5 79.9999 634.5C80.7999 634.5 81.9999 635.167 82.4999 635.5L85.4999 638.5L90.4999 639C91.1665 639.167 92.5999 639.5 92.9999 639.5C93.3999 639.5 94.8332 639.5 95.4999 639.5L96.4999 639C96.6665 638.833 96.9999 638.3 96.9999 637.5C96.9999 636.5 96.9999 636.5 96.9999 635.5C96.9999 634.5 97.4999 634.5 96.9999 633.5C96.4999 632.5 96.4999 632.5 95.9999 632C95.4999 631.5 94.4999 632 93.9999 631.5C93.4999 631 94.4999 631.5 92.4999 631C90.8999 630.6 90.1665 630.5 89.9999 630.5L83.9999 627.5L82.9999 625C82.8332 624.667 82.5999 623.9 82.9999 623.5C83.4999 623 83.9999 622.5 83.9999 621.5C83.9999 620.5 85.4999 620 85.4999 619C85.4999 618 86.9999 614.5 88.4999 613.5C89.9999 612.5 93.4999 609.5 93.9999 609C94.4999 608.5 95.4999 607 95.9999 606C96.4999 605 95.9999 605.5 96.9999 604.5C97.9999 603.5 97.9999 603.5 98.9999 602.5C99.9999 601.5 101 601.5 101.5 600.5C101.9 599.7 102.667 599.167 103 599C103.667 599 105.2 599 106 599C107 599 108.5 599 109 599C109.5 599 112.5 599.5 112.5 599C112.5 598.5 113 597.5 113.5 596.5C114 595.5 114.5 594 115 593C115.4 592.2 115.5 591.333 115.5 591L124 583.5L128 578L130 575.5L131.5 572.5C131 571.167 129.8 568.4 129 568C128 567.5 127 567 126.5 566C126 565 126.5 563.5 126 562.5C125.6 561.7 127.167 558.5 128 557L128.5 553.5L126.5 552L123.5 550L119 543C119.167 542.167 119.5 540.4 119.5 540C119.5 539.5 121 537 121 536C121 535 121.5 533 121 532.5C120.6 532.1 119.5 531 119 530.5C118.667 530.5 117.9 530.5 117.5 530.5C117 530.5 115.5 529.5 114.5 528.5C113.5 527.5 113.5 527.5 112.5 527C111.5 526.5 109.5 525 109 524C108.5 523 108 521.5 108 521C108 520.5 106 518.5 105 518.5C104 518.5 104 518.5 102 518.5C99.9999 518.5 97.4999 518.5 96.4999 518.5C95.6999 518.5 94.1665 519.167 93.4999 519.5L90.9999 518C90.6665 517.5 90.0999 516.3 90.4999 515.5C90.9999 514.5 90.4999 514 91.4999 513.5C92.4999 513 93.4999 512.5 94.4999 512C95.4999 511.5 95.9999 511.5 96.9999 511C97.9999 510.5 97.9999 510.5 98.9999 509.5C99.9999 508.5 99.4999 508.5 99.9999 507.5C100.5 506.5 100.5 506.5 100.5 505C100.5 503.5 99.9999 503 100.5 502C101 501 99.9999 501 101 500.5C102 500 102 499.5 102.5 499.5C102.9 499.5 104.333 500.167 105 500.5H107C107.833 499.5 109.3 497.3 108.5 496.5C107.5 495.5 105.5 495 104 495.5C102.5 496 101 496 100.5 496C99.9999 496 98.4999 496.5 97.4999 495.5C96.4999 494.5 95.4999 494.5 94.9999 493.5C94.4999 492.5 94.4999 493 93.9999 491.5C93.4999 490 92.4999 489.5 91.9999 488C91.4999 486.5 91.4999 486.5 90.4999 486C89.4999 485.5 88.9999 485 88.4999 485C87.9999 485 87.4999 485 86.4999 485C85.4999 485 84.9999 486 84.9999 487C84.9999 487.8 84.9999 489 84.9999 489.5C85.1665 489.667 85.2999 490.3 84.4999 491.5C83.4999 493 83.9999 493 82.9999 494C82.1999 494.8 81.3332 495.333 80.9999 495.5C80.4999 496.167 78.8999 497.3 76.4999 496.5C73.4999 495.5 73.9999 496.5 71.4999 495.5C68.9999 494.5 69.9999 493.5 67.9999 494C65.9999 494.5 64.9999 495.5 64.4999 495.5C63.9999 495.5 63.4999 494.5 58.9999 495C54.4999 495.5 56.4999 495 53.4999 495C50.4999 495 47.9999 496 46.4999 495C44.9999 494 44.9999 495 43.9999 494C42.9999 493 43.9999 493 41.4999 492C38.9999 491 37.4999 491.5 37.4999 490.5C37.4999 489.5 37.4999 488.5 36.4999 485C35.4999 481.5 35.4999 483 34.9999 480.5C34.4999 478 34.4999 479 33.9999 477C33.4999 475 33.4999 476 32.9999 473.5C32.4999 471 32.4999 471 32.4999 469.5C32.4999 468 30.9999 466 30.9999 464.5C30.9999 463 31.4999 464.5 30.4999 462C29.4999 459.5 29.9999 461.5 28.9999 459C27.9999 456.5 27.9999 459 27.4999 456C25.9999 450.5 25.9999 451 25.4999 449C24.4999 445.5 23.9999 444.5 23.4999 443C22.9999 441.5 24.5 440.5 25 439C25.5 437.5 24.5 437 24 436C23.5 434 24.4999 434.5 24.4999 433.5C24.4999 432.5 25.9999 428 26.4999 428C26.9999 428 26.9999 428.5 27.4999 426C27.9999 423.5 28.5 425 28 423.5C27.5 422 28 421 27 419C26 417 26.4999 416 26.4999 414.5C26.4999 413 25.4999 409.5 26.4999 408C27.4999 406.5 27.9999 407 28.4999 405.5C28.9999 404 28.9999 402 30.4999 401C31.9999 400 33.4999 396.5 34.4999 395.5C35.4999 394.5 36.4999 393 36.4999 392C36.4999 391 35.4999 389 35.4999 388.5C35.4999 388.1 31.8332 380.333 29.9999 376.5L31.4999 371.5C31.4999 370.5 31.4999 368.3 31.4999 367.5C31.4999 366.5 31.9999 361 31.4999 359C31.0999 357.4 30.6665 354.333 30.4999 353L21.9999 341.5C21.1665 341.167 19.1999 340.2 17.9999 339C16.4999 337.5 19.9999 336 15.4999 336C10.9999 336 13.4999 338.5 10.9999 337.5C8.49988 336.5 8.49988 336.5 8.49988 335.5C8.49988 334.5 9.99988 334 9.49988 331.5C8.99988 329 6 327.5 4.5 327C3 326.5 4.97266 322.671 2.99988 323C0 323.5 4.83321 321.833 5.49988 321C7.49988 319.5 11.3999 316.2 10.9999 315C10.4999 313.5 9.49988 310.5 9.49988 308.5C9.49988 306.9 9.83321 306.167 9.99988 306C10.6665 305.833 12.1999 305.2 12.9999 304C13.9999 302.5 14.9999 302 15.4999 300C15.9999 298 17.9999 296.5 18.4999 294C18.9999 291.5 19.9999 290 18.4999 285C16.9999 280 15.9999 277.5 15.4999 276C14.9999 274.5 13.4999 274.5 13.9999 274C13.9999 274 21.1311 275.37 24.5 273C28.5401 270.158 25.6288 265.02 28.5 261C30.105 258.753 31.6533 258.053 33.5 256C35.825 253.415 38.5142 252.442 39 249C39.4314 245.943 37.6145 244.379 36.5 241.5C34.2934 235.8 32.5842 232.778 29.5 227.5C22.8376 216.1 8.5 201 8.5 201C8.5 201 6.77387 196.664 7.5 194C8.51918 190.261 12.0687 190.036 15 187.5C22.0158 181.431 33 172 33 172L55 155C55 155 61.1163 149.284 66 147.5C68.447 146.606 70.3424 147.46 72.5 146C74.9686 144.33 75.84 142.407 76.5 139.5C77.1972 136.43 75.734 134.64 75.5 131.5C75.1517 126.827 74.1259 123.98 75.5 119.5C76.0639 117.661 76.9039 116.828 77.5 115C78.058 113.288 78 114 78.5 110.5C79 107 70.5 102.5 71.5 101.5C72.5 100.5 91 99 91 99L99.5 96L105 93L113 90C113 90 117.208 88.6523 120 88.5C123.75 88.2954 129.5 90 129.5 90L138.5 93.5Z" stroke="#60898C" stroke-width="4"/>
</svg>
