<svg width="252" height="253" viewBox="0 0 252 253" fill="none" xmlns="http://www.w3.org/2000/svg">
<path d="M24.7 205.1C30.3 207.7 35.8 211 40.2 215.1C54.4 228.3 61.7 243.6 56.3 249.4C51 255.1 35.2 249 20.9 235.8C19.5 234.467 18.2 233.067 17 231.6L25.8 230.3L14.4 228.3C4.70002 214.8 0 197.1 0 197.1C0 197.1 3.5 197.7 8.5 199.1L9.70001 203.6L9.90002 199.6C14.0334 200.8 18.0667 202.233 22 203.9L24.2 212.6L24.7 205.1Z" fill="#F2F2F2"/>
<path d="M49.6 197C53 202 56.1 207.7 57.7 213.5C63.1 232.2 61.3 249 53.8 251.2C46.3 253.3 35.9 240 30.5 221.3C29.9666 219.433 29.5666 217.567 29.3 215.7L37.5 219.2L28.8 211.5C27.4 194.9 32.6 177.3 32.6 177.3C32.6 177.3 35.2 179.6 38.8 183.5L37.5 187.9L39.8 184.6C42.6666 187.733 45.3667 191.033 47.9 194.5L45.3 203.1L49.6 197Z" fill="#F2F2F2"/>
<path d="M175.6 86.8H174.2V229.7C174.2 241.8 164.4 251.6 152.3 251.6H72.1C59.9 251.6 50.1 241.8 50.1 229.7V21.9C50.1 9.79999 59.9 0 72.1 0H152.3C164.4 0 174.2 9.79999 174.2 21.9V59.8H175.6V86.8Z" fill="#E6E6E6"/>
<path d="M169.5 22.1V229.5C169.5 238.6 162.2 245.9 153.2 245.9H72.4999C63.4999 245.9 56.2 238.6 56.2 229.5V22.1C56.2 13 63.4999 5.7 72.4999 5.7H82.2999C81.3999 8.1 81.5999 10.8 83.0999 13C84.4999 15.1 86.8999 16.4 89.4999 16.4H135.5C138.1 16.4 140.5 15.1 142 13C143.4 10.8 143.7 8.1 142.7 5.7H153.2C162.2 5.7 169.5 13 169.5 22.1V22.1Z" fill="white"/>
<path fill-rule="evenodd" clip-rule="evenodd" d="M136.9 114.1H88.8001C87.8001 114.1 87.1001 113.4 87.1001 112.4V64.3C87.1001 63.3 87.8001 62.5 88.8001 62.5H136.9C137.9 62.5 138.7 63.3 138.7 64.3V112.4C138.7 113.4 137.9 114.1 136.9 114.1ZM88.8001 63.2C88.2001 63.2 87.7001 63.7 87.7001 64.3V112.4C87.7001 113 88.2001 113.5 88.8001 113.5H136.9C137.5 113.5 138 113 138 112.4V64.3C138 63.7 137.5 63.2 136.9 63.2H88.8001Z" fill="#CCCCCC"/>
<path d="M73.8 151.1H147.7V151.7H73.8V151.1Z" fill="#CCCCCC"/>
<path d="M76.2001 146.7C74.9001 146.7 73.8 145.7 73.8 144.4C73.8 143.1 74.9001 142.1 76.2001 142.1C77.5001 142.1 78.5001 143.1 78.5001 144.4C78.5001 145.7 77.5001 146.7 76.2001 146.7Z" fill="#497174"/>
<path d="M144 191.9H85.3C83.2 191.9 81.4 191.2 81.4 190.4V182.2C81.4 181.4 83.2 180.7 85.3 180.7H144C146.1 180.7 147.8 181.4 147.8 182.2V190.4C147.8 191.2 146.1 191.9 144 191.9Z" fill="#497174"/>
<path d="M83.8 146.7C82.5 146.7 81.4 145.7 81.4 144.4C81.4 143.1 82.5 142.1 83.8 142.1C85.1 142.1 86.1 143.1 86.1 144.4C86.1 145.7 85.1 146.7 83.8 146.7Z" fill="#497174"/>
<path d="M91.4001 146.7C90.1001 146.7 89.1001 145.7 89.1001 144.4C89.1001 143.1 90.1001 142.1 91.4001 142.1C92.7001 142.1 93.7001 143.1 93.7001 144.4C93.7001 145.7 92.7001 146.7 91.4001 146.7Z" fill="#497174"/>
<path d="M250.7 252.4H8.09991C7.59991 252.4 7.19995 252.2 7.19995 252C7.19995 251.8 7.59991 251.6 8.09991 251.6H250.7C251.2 251.6 251.6 251.8 251.6 252C251.6 252.2 251.2 252.4 250.7 252.4Z" fill="#3F3D56"/>
<path d="M190.8 165.4C190.933 165.467 191.067 165.533 191.2 165.6L206.4 159.2L206.9 155.2L213 155.1L212.6 164.3L192.6 169.6C192.6 169.733 192.567 169.867 192.5 170C191.7 171.7 189.6 172.5 187.9 171.7C186.2 170.9 185.4 168.8 186.2 167.1C187 165.4 189 164.6 190.8 165.4V165.4Z" fill="#FFB8B8"/>
<path d="M215.2 248.3H211.1L209.1 232.3H215.2V248.3Z" fill="#FFB8B8"/>
<path d="M208.1 247.1H216.1V252.2H203.1C203.1 249.4 205.3 247.1 208.1 247.1Z" fill="#2F2E41"/>
<path d="M231.3 247.2L227.2 247.6L223.7 231.9L229.7 231.3L231.3 247.2Z" fill="#FFB8B8"/>
<path d="M224.1 246.7L232.1 245.9L232.6 250.9L219.6 252.2C219.3 249.4 221.4 246.9 224.1 246.7Z" fill="#2F2E41"/>
<path d="M216.4 138.2C211.8 138.2 208.1 134.5 208.1 129.9C208.1 125.3 211.8 121.6 216.4 121.6C220.9 121.6 224.7 125.3 224.7 129.9C224.7 134.5 220.9 138.2 216.4 138.2Z" fill="#FFB8B8"/>
<path d="M210.1 245.1C209.4 245.1 208.8 244.6 208.6 243.8C206.5 231.9 199.5 193 199.3 192C199.3 191.933 199.3 191.9 199.3 191.9V189C199.3 188.867 199.333 188.767 199.4 188.7L200.3 187.4C200.433 187.267 200.567 187.2 200.7 187.2C206 186.9 223.3 186.2 224.1 187.2C225 188.3 224.7 191.5 224.6 192.1V192.2L232.4 241.8C232.5 242.6 231.9 243.4 231.1 243.6L226.3 244.4C225.5 244.5 224.8 244 224.6 243.3C223.1 238.5 218 222.4 216.3 216.2C216.233 216.067 216.167 216 216.1 216C216 216 216 216.1 216 216.2C216 222.1 216.3 237.3 216.3 242.6V243.1C216.3 243.9 215.7 244.6 215 244.7L210.3 245.1C210.233 245.1 210.167 245.1 210.1 245.1V245.1Z" fill="#2F2E41"/>
<path d="M212.2 141.2C217.2 140 222.5 141.1 226.6 144.2C227.2 144.667 227.733 145.2 228.2 145.8L226 168.8L224.5 189.8C224.5 189.8 223.7 184.6 216.1 188.5C208.5 192.4 205.2 193.5 199.6 188.8L206.1 164L206.6 154.7C206.8 151.6 207.4 148.5 208.3 145.5C208.8 143.9 209.6 142.3 211.1 141.5L212.2 141.2Z" fill="#497174"/>
<path d="M209 170.4C209.133 170.467 209.3 170.533 209.5 170.6L224.5 163.1L224.7 159L230.9 158.6L231.2 167.9L211.2 174.5C210.9 175.9 209.7 177 208.2 177.2C206.8 177.4 205.3 176.7 204.6 175.4C203.9 174.1 204.1 172.5 205.1 171.4C206 170.2 207.6 169.8 209 170.4Z" fill="#FFB8B8"/>
<path d="M228.1 145.9C231.8 147.2 232.4 161.3 232.4 161.3C228.1 158.9 222.9 162.8 222.9 162.8C222.9 162.8 221.8 159.2 220.5 154.4C219.7 151.7 220.4 148.7 222.3 146.6C222.3 146.6 224.4 144.6 228.1 145.9V145.9Z" fill="#497174"/>
<path d="M223.8 132.1C222.8 131.3 221.3 132.8 221.3 132.8L220.5 125.4C220.5 125.4 215.4 126 212 125.1C208.7 124.3 208.2 128.1 208.2 128.1C208.067 126.567 208.033 125.033 208.1 123.5C208.3 121.6 211 119.8 215.8 118.5C220.5 117.3 223 122.7 223 122.7C226.3 124.3 224.8 132.9 223.8 132.1V132.1Z" fill="#2F2E41"/>
<path d="M106.9 82.6C106.433 82.8667 105.967 83.1 105.5 83.3C105.233 82.3 105.067 81.3 105 80.3C109.1 78.1 113.4 76.4 117.9 75.3C118.567 76.1667 119.133 77.0667 119.6 78C119.067 78.1333 118.567 78.2667 118.1 78.4C117.833 77.9333 117.567 77.4667 117.3 77C113.633 78.1333 110.033 79.5 106.5 81.1C106.633 81.6333 106.767 82.1333 106.9 82.6V82.6Z" fill="#4A7175"/>
<path fill-rule="evenodd" clip-rule="evenodd" d="M130.1 92C122.8 95.9 115.1 98.9 107.1 100.8C103.7 96.4667 101.8 91.5333 101.4 86C108.7 82.1 116.4 79.1 124.4 77.2C127.8 81.5333 129.7 86.4667 130.1 92ZM123.8 78.8C122.667 79.1333 121.5 79.5 120.3 79.9L122.2 84.7C122.7 84.6 123.1 84.8 123.2 85.1L120.6 86.1C120.5 85.8 120.7 85.4 121.1 85.1L119.2 80.2C115.133 81.5333 111.167 83.0667 107.3 84.8L109.2 89.9C109.7 89.8 110.2 89.9 110.3 90.2L109.5 90.5L108.4 90.9L107.6 91.2C107.5 90.9 107.8 90.6 108.2 90.3L106.3 85.2C105.167 85.7333 104.033 86.2667 102.9 86.8C103.6 91.2 105.2 95.5 107.7 99.2C114.9 97.2 121.9 94.5 128.6 91.2C127.9 86.8 126.3 82.5 123.8 78.8V78.8Z" fill="#CCCCCC"/>
<path d="M125.8 94.7C126.666 94.2333 127.533 93.8 128.4 93.4C128.5 94.1 128.1 94.8 127.4 95C126.9 95.2 126.2 95.1 125.8 94.7Z" fill="#4A7175"/>
<path d="M109.2 100.7C110.133 100.433 111.067 100.167 112 99.9C112 100.5 111.6 101.1 111 101.3C110.4 101.5 109.6 101.3 109.2 100.7V100.7Z" fill="#4A7175"/>
<path d="M107.8 91.7L110.5 90.7C110.6 91.1 110.2 91.7 109.4 92C108.7 92.2 108 92.1 107.8 91.7Z" fill="#CCCCCC"/>
<path d="M120.8 86.6L123.4 85.6C123.5 86 123.1 86.5 122.4 86.8C121.6 87.1 120.9 87 120.8 86.6Z" fill="#CCCCCC"/>
<path opacity="0.5" d="M104.2 97.6L99 97.7L100.2 96.4H103.5C103.7 96.8 103.933 97.2 104.2 97.6Z" fill="#497174"/>
<path opacity="0.7" d="M105.2 99.3L97.2998 99.4L98.4998 98.2L104.5 98.1C104.7 98.5 104.933 98.9 105.2 99.3V99.3Z" fill="#497174"/>
<path d="M95.7 101.1L96.7999 99.9L105.5 99.8C105.833 100.2 106.133 100.567 106.4 100.9L95.7 101.1Z" fill="#4A7175"/>
</svg>
